<svg xmlns="http://www.w3.org/2000/svg" width="640" height="512" viewBox="0 0 640 512"><path d="M593 67.7L572.3 47c-9.7-9.7-22.6-15-36.3-15s-26.6 5.3-36.3 15l-20 20c-2.4-19.8-19.3-35-39.7-35H72c-22.1 0-40 17.9-40 40v368c0 22.1 17.9 40 40 40h368c22.1 0 40-17.9 40-40V253.3l113-113c9.7-9.7 15-22.6 15-36.3s-5.3-26.6-15-36.3zM448 440c0 4.4-3.6 8-8 8H72c-4.4 0-8-3.6-8-8V72c0-4.4 3.6-8 8-8h368c4.4 0 8 3.6 8 8v26.7l-160 160-83.7-83.7c-9.7-9.7-22.6-15-36.3-15s-26.6 5.3-36.3 15L111 195.7c-20 20-20 52.6 0 72.6l127 127c13.3 13.4 31.1 20.7 50 20.7s36.6-7.3 50-20.7l110-110V440zm122.3-322.3L448 240 315.3 372.7c-7.5 7.5-17.4 11.3-27.3 11.3s-19.8-3.8-27.3-11.3l-127-127c-7.5-7.5-7.5-19.8 0-27.3l20.7-20.7c3.8-3.8 8.7-5.7 13.7-5.7s9.9 1.9 13.7 5.7L288 304 522.3 69.7c3.8-3.8 8.7-5.7 13.7-5.7s9.9 1.9 13.7 5.7l20.7 20.7c7.5 7.5 7.5 19.7-.1 27.3z"/></svg>