<svg xmlns="http://www.w3.org/2000/svg" width="640" height="512" viewBox="0 0 640 512"><style>.st0{fill:#fff}</style><path class="st0" d="M576 103v13.7V104v-1zM64 116.8V103v13.8z"/><path fill="#fff" d="M576 127.2v12.1V128v-.8zM64 139.3v-12.1V139.3zM576 127.2c-.4-34.9-29.1-63.2-64-63.2H128c-34.9 0-63.6 28.3-64 63.2V384c0 35.2 28.8 64 64 64h384c35.2 0 64-28.8 64-64V127.2zM96 128v-.4c.2-17.2 14.4-31.6 32-31.6h384c17.6 0 31.8 14.5 32 31.6V139.3c0 19.9-22 49.3-42.9 63.4-37.2 25.2-84.7 59.8-116.9 82.3-15.3 10.9-43.5 35-64.2 35-20.7 0-48.6-23.9-64.2-34.9-32.2-22.5-79.7-57.1-116.9-82.3C118 188.6 96 159.3 96 139.3V128zm448 256c0 17.5-14.5 32-32 32H128c-17.5 0-32-14.5-32-32V207.3c7.8 8.5 16.4 16.2 24.9 22 36.7 24.9 84.4 59.7 116.5 82 18.3 12.8 49.8 40.7 82.6 40.7 32.6 0 63.6-27.4 82.6-40.7 33.7-23.6 80-57.3 116.5-82 8.5-5.8 17.1-13.4 24.9-22V384zM544 127.6v11.7V128v-.4zM96 139.3v-11.7V139.3z"/></svg>